<?xml version="1.0" standalone="no"?>
<!DOCTYPE svg PUBLIC "-//W3C//DTD SVG 20010904//EN"
 "http://www.w3.org/TR/2001/REC-SVG-20010904/DTD/svg10.dtd">
<svg version="1.0" xmlns="http://www.w3.org/2000/svg"
 width="500.000000pt" height="500.000000pt" viewBox="0 0 500.000000 500.000000"
 preserveAspectRatio="xMidYMid meet">

<g transform="translate(0.000000,500.000000) scale(0.100000,-0.100000)"
fill="#000000" stroke="none">
<path d="M2360 2490 l0 -200 35 0 35 0 0 200 0 200 -35 0 -35 0 0 -200z"/>
<path d="M2770 2490 l0 -200 35 0 35 0 0 200 0 200 -35 0 -35 0 0 -200z"/>
<path d="M3280 2490 l0 -200 40 0 40 0 0 200 0 200 -40 0 -40 0 0 -200z"/>
<path d="M3470 2530 l0 -160 35 0 35 0 0 160 0 160 -35 0 -35 0 0 -160z"/>
<path d="M3880 2530 l0 -160 35 0 35 0 0 160 0 160 -35 0 -35 0 0 -160z"/>
<path d="M1050 2570 l0 -110 35 0 35 0 0 110 0 110 -35 0 -35 0 0 -110z"/>
<path d="M1170 2645 l0 -35 140 0 140 0 0 35 0 35 -140 0 -140 0 0 -35z"/>
<path d="M1776 2513 l-169 -165 27 -26 26 -27 167 168 168 167 -25 24 -25 25
-169 -166z"/>
<path d="M2490 2595 l-24 -26 104 -104 104 -105 28 27 28 27 -102 103 c-56 57
-105 103 -109 103 -3 0 -16 -11 -29 -25z"/>
<path d="M2002 2567 l-22 -23 125 -124 124 -124 26 24 26 24 -123 123 c-68 68
-125 123 -129 123 -3 0 -15 -10 -27 -23z"/>
<path d="M1170 2495 l0 -35 120 0 120 0 0 35 0 35 -120 0 -120 0 0 -35z"/>
<path d="M1460 2410 l0 -120 35 0 35 0 0 120 0 120 -35 0 -35 0 0 -120z"/>
<path d="M1840 2405 l0 -35 100 0 100 0 0 35 0 35 -100 0 -100 0 0 -35z"/>
<path d="M1050 2325 l0 -35 180 0 180 0 0 35 0 35 -180 0 -180 0 0 -35z"/>
<path d="M2950 2325 l0 -35 140 0 140 0 0 35 0 35 -140 0 -140 0 0 -35z"/>
<path d="M3590 2325 l0 -35 120 0 120 0 0 35 0 35 -120 0 -120 0 0 -35z"/>
</g>
</svg>
